<svg id="ARROW_DIR" xmlns="http://www.w3.org/2000/svg" width="24" height="24" viewBox="0 0 24 24">
  <path id="Caminho_8023" data-name="Caminho 8023" d="M12,0A12,12,0,1,1,0,12,12,12,0,0,1,12,0Z" fill="#060606"/>
  <path id="FAVORITOS" d="M5.906-14.852,9.834-11.1a.536.536,0,0,1,.166.388.536.536,0,0,1-.166.388L5.906-6.577a.536.536,0,0,1-.758-.018.535.535,0,0,1,.018-.758l2.962-2.826H.536A.536.536,0,0,1,0-10.714a.536.536,0,0,1,.536-.535H8.127L5.165-14.075a.538.538,0,0,1-.018-.759A.537.537,0,0,1,5.906-14.852Z" transform="translate(7 22.714)" fill="#f2f2f2"/>
</svg>
